<svg width="85" height="25" viewBox="0 0 85 25" fill="none" xmlns="http://www.w3.org/2000/svg">
<path d="M0.748047 1.01562H7.54297C10.7331 1.01562 13.3262 1.68099 15.3223 3.01172C16.653 3.88672 17.7057 5.02148 18.4805 6.41602C19.4193 8.12044 19.8887 10.0846 19.8887 12.3086C19.8887 15.0885 19.2005 17.4355 17.8242 19.3496C15.737 22.248 12.237 23.6973 7.32422 23.6973H0.748047V1.01562ZM3.31836 3.25781V21.4277H7.16016C9.71224 21.4277 11.8086 20.9219 13.4492 19.9102C14.7526 19.1081 15.7188 17.9642 16.3477 16.4785C16.8581 15.2663 17.1133 13.89 17.1133 12.3496C17.1133 8.73112 15.8919 6.18359 13.4492 4.70703C11.8542 3.74089 9.8125 3.25781 7.32422 3.25781H3.31836ZM24.2637 1.01562H31.0586C34.2487 1.01562 36.8418 1.68099 38.8379 3.01172C40.1686 3.88672 41.2214 5.02148 41.9961 6.41602C42.9349 8.12044 43.4043 10.0846 43.4043 12.3086C43.4043 15.0885 42.7161 17.4355 41.3398 19.3496C39.2526 22.248 35.7526 23.6973 30.8398 23.6973H24.2637V1.01562ZM26.834 3.25781V21.4277H30.6758C33.2279 21.4277 35.3242 20.9219 36.9648 19.9102C38.2682 19.1081 39.2344 17.9642 39.8633 16.4785C40.3737 15.2663 40.6289 13.89 40.6289 12.3496C40.6289 8.73112 39.4076 6.18359 36.9648 4.70703C35.3698 3.74089 33.3281 3.25781 30.8398 3.25781H26.834ZM47.8887 1.01562H55.5039C57.8372 1.01562 59.6829 1.44401 61.041 2.30078C62.8366 3.43099 63.7344 5.05794 63.7344 7.18164C63.7344 9.08659 63.0098 10.554 61.5605 11.584C60.722 12.1855 59.3822 12.6595 57.541 13.0059V13.1016C58.9811 13.5846 60.1888 14.5827 61.1641 16.0957C62.2943 17.8639 63.6797 20.3978 65.3203 23.6973H62.1621C60.4759 19.7962 59.0723 17.194 57.9512 15.8906C56.7572 14.5143 55.1758 13.8262 53.207 13.8262H50.459V23.6973H47.8887V1.01562ZM50.459 3.17578V11.748H54.6016C56.5339 11.748 58.056 11.3926 59.168 10.6816C60.362 9.92513 60.959 8.79492 60.959 7.29102C60.959 4.54753 58.9902 3.17578 55.0527 3.17578H50.459ZM73.0996 10.6816H74.8633C76.6042 10.6816 78.0033 10.4036 79.0605 9.84766C79.2975 9.72005 79.5208 9.56966 79.7305 9.39648C80.651 8.62174 81.1113 7.66016 81.1113 6.51172C81.1113 5.30859 80.6283 4.36523 79.6621 3.68164C78.778 3.07096 77.6432 2.76562 76.2578 2.76562C74.1797 2.76562 72.2702 3.58594 70.5293 5.22656L68.9297 3.51758C69.6589 2.80664 70.4883 2.22331 71.418 1.76758C72.9857 0.992839 74.64 0.605469 76.3809 0.605469C78.1673 0.605469 79.7122 0.965495 81.0156 1.68555C82.9297 2.74284 83.8867 4.27865 83.8867 6.29297C83.8867 7.82422 83.3262 9.10482 82.2051 10.1348C81.3392 10.946 80.0905 11.4564 78.459 11.666V11.7754C80.3913 11.9759 81.8906 12.5456 82.957 13.4844C84.1146 14.5143 84.6934 15.8906 84.6934 17.6133C84.6934 19.7826 83.8366 21.4551 82.123 22.6309C80.6465 23.6426 78.7051 24.1484 76.2988 24.1484C72.9629 24.1484 70.2559 23.082 68.1777 20.9492L69.8047 19.2266C70.3971 19.8464 71.0579 20.3522 71.7871 20.7441C73.1999 21.5189 74.7038 21.9062 76.2988 21.9062C78.0944 21.9062 79.5026 21.4961 80.5234 20.6758C81.4349 19.9375 81.8906 18.903 81.8906 17.5723C81.8906 14.4004 79.5299 12.8145 74.8086 12.8145H73.0996V10.6816Z" fill="url(#paint0_linear_504_1706)"/>
<defs>
<linearGradient id="paint0_linear_504_1706" x1="83.5882" y1="7.00001" x2="-2.70612" y2="21.9144" gradientUnits="userSpaceOnUse">
<stop stop-color="#260DC1"/>
<stop offset="1" stop-color="#59006F"/>
</linearGradient>
</defs>
</svg>
